<svg width="97" height="51" viewBox="0 0 97 51" fill="none" xmlns="http://www.w3.org/2000/svg">
<path d="M79.5544 28.539L78.2376 26.7547H62.5411L68.9247 35.9722C62.2835 37.2699 56.0144 31.7165 56.1003 25.2566C56.1957 18.6536 61.5201 13.7108 67.8941 13.7586C74.8884 13.7967 81.8635 21.3349 79.5544 28.539V28.539ZM88.9723 39.8653C88.9723 39.8653 93.6288 33.7871 93.6478 25.8768C93.686 10.333 82.7987 0.237626 67.6079 0.209C58.8102 0.199458 51.3389 4.49333 46.8065 10.7719C48.6862 13.4437 49.7835 16.02 50.232 17.728H43.276C42.9229 18.8253 42.6462 19.9513 42.4458 21.1058H51.0335C51.2339 22.3749 51.3389 23.6726 51.3389 24.999C51.3389 30.3234 49.669 35.2565 46.8256 39.3214C51.253 45.6859 58.5908 50.3042 67.6938 50.3042C73.7338 50.3042 77.9991 47.7279 78.772 47.3176L80.375 49.4263H95.8329L88.9723 39.8653V39.8653Z" fill="#C6A348"/>
<path d="M27.847 32.9006H34.2401C34.2401 33.1869 30.9672 36.3739 26.0436 36.3739C20.6333 36.3739 14.5074 32.0991 14.3833 25.2575C14.2593 18.1679 20.3852 13.521 26.0436 13.7213C30.6332 13.8836 32.3794 15.2003 34.9462 17.7194C34.9462 17.7194 38.6485 17.7194 42.408 17.729H50.2228C49.7744 16.0209 48.677 13.4446 46.7973 10.7729C46.6351 10.5534 46.4824 10.3244 46.3106 10.1049C42.5511 5.09543 36.0149 0.019118 25.8527 3.41295e-05C13.9158 -0.0190497 4.70779 7.96755 1.67345 17.729C1.63529 17.8435 1.59712 17.9675 1.56849 18.082C1.56849 18.0915 1.56849 18.0915 1.55895 18.1011C0.938725 20.2862 0.595215 22.5953 0.595215 24.9713C0.614299 27.2518 0.910099 29.4369 1.45399 31.498C3.37192 38.6258 8.35281 44.5036 14.9272 47.662C14.9845 47.6906 15.0322 47.7097 15.0894 47.7384C15.118 47.7574 15.1562 47.767 15.1944 47.7861C18.5054 49.2937 22.2268 50.1334 26.1867 50.162C34.5645 50.0952 41.9786 45.9922 46.5492 39.7136C46.6446 39.58 46.7305 39.4464 46.8259 39.3128C49.6694 35.248 51.3392 30.3148 51.3392 24.9904C51.3392 23.664 51.2343 22.3663 51.0339 21.0973H27.847V32.9006V32.9006Z" fill="black"/>
</svg>
